<?xml version="1.0" encoding="UTF-8"?>
<svg xmlns="http://www.w3.org/2000/svg" xmlns:xlink="http://www.w3.org/1999/xlink" width="29pt" height="29pt" viewBox="0 0 29 29" version="1.1">
<g id="surface1">
<path style=" stroke:none;fill-rule:nonzero;fill:rgb(0%,0%,0%);fill-opacity:1;" d="M 14.347656 7.539062 L 4.113281 15.976562 C 4.113281 15.984375 4.109375 16.003906 4.101562 16.027344 C 4.101562 16.050781 4.097656 16.066406 4.097656 16.078125 L 4.097656 24.621094 C 4.097656 24.929688 4.210938 25.195312 4.429688 25.425781 C 4.660156 25.644531 4.925781 25.757812 5.234375 25.757812 L 12.066406 25.757812 L 12.066406 18.925781 L 16.621094 18.925781 L 16.621094 25.757812 L 23.453125 25.757812 C 23.765625 25.757812 24.03125 25.644531 24.253906 25.425781 C 24.484375 25.195312 24.59375 24.929688 24.59375 24.621094 L 24.59375 16.078125 C 24.59375 16.03125 24.585938 15.996094 24.578125 15.976562 Z M 14.347656 7.539062 "/>
<path style=" stroke:none;fill-rule:nonzero;fill:rgb(0%,0%,0%);fill-opacity:1;" d="M 28.492188 14.050781 L 24.59375 10.8125 L 24.59375 3.554688 C 24.59375 3.386719 24.539062 3.25 24.4375 3.140625 C 24.328125 3.039062 24.191406 2.984375 24.023438 2.984375 L 20.605469 2.984375 C 20.441406 2.984375 20.308594 3.039062 20.199219 3.140625 C 20.089844 3.25 20.035156 3.386719 20.035156 3.554688 L 20.035156 7.023438 L 15.699219 3.390625 C 15.320312 3.085938 14.867188 2.929688 14.347656 2.929688 C 13.820312 2.929688 13.371094 3.085938 12.992188 3.390625 L 0.199219 14.050781 C 0.0820312 14.148438 0.0117188 14.277344 0.00390625 14.433594 C -0.0078125 14.59375 0.03125 14.734375 0.128906 14.851562 L 1.230469 16.167969 C 1.324219 16.273438 1.449219 16.34375 1.601562 16.363281 C 1.746094 16.378906 1.890625 16.335938 2.03125 16.238281 L 14.347656 5.96875 L 26.660156 16.238281 C 26.753906 16.324219 26.878906 16.363281 27.03125 16.363281 L 27.085938 16.363281 C 27.242188 16.34375 27.363281 16.273438 27.460938 16.167969 L 28.5625 14.851562 C 28.660156 14.734375 28.699219 14.59375 28.6875 14.433594 C 28.675781 14.277344 28.609375 14.148438 28.492188 14.050781 Z M 28.492188 14.050781 "/>
</g>
</svg>
