<?xml version="1.0" encoding="UTF-8"?>
<svg xmlns="http://www.w3.org/2000/svg" xmlns:xlink="http://www.w3.org/1999/xlink" width="24pt" height="24pt" viewBox="0 0 24 24" version="1.1">
<g id="surface1">
<path style=" stroke:none;fill-rule:nonzero;fill:rgb(0%,0%,0%);fill-opacity:1;" d="M 21.1875 0.9375 L 2.8125 0.9375 C 1.261719 0.9375 0 2.199219 0 3.75 L 0 20.25 C 0 21.800781 1.261719 23.0625 2.8125 23.0625 L 21.1875 23.0625 C 22.738281 23.0625 24 21.800781 24 20.25 L 24 3.75 C 24 2.199219 22.738281 0.9375 21.1875 0.9375 Z M 2.8125 2.8125 L 21.1875 2.8125 C 21.703125 2.8125 22.125 3.234375 22.125 3.75 L 22.125 6.5625 L 1.875 6.5625 L 1.875 3.75 C 1.875 3.234375 2.296875 2.8125 2.8125 2.8125 Z M 21.1875 21.1875 L 2.8125 21.1875 C 2.296875 21.1875 1.875 20.765625 1.875 20.25 L 1.875 8.4375 L 22.125 8.4375 L 22.125 20.25 C 22.125 20.765625 21.703125 21.1875 21.1875 21.1875 Z M 3.28125 4.6875 C 3.28125 4.167969 3.699219 3.75 4.21875 3.75 C 4.738281 3.75 5.15625 4.167969 5.15625 4.6875 C 5.15625 5.207031 4.738281 5.625 4.21875 5.625 C 3.699219 5.625 3.28125 5.207031 3.28125 4.6875 Z M 6.5625 4.6875 C 6.5625 4.167969 6.980469 3.75 7.5 3.75 C 8.019531 3.75 8.4375 4.167969 8.4375 4.6875 C 8.4375 5.207031 8.019531 5.625 7.5 5.625 C 6.980469 5.625 6.5625 5.207031 6.5625 4.6875 Z M 16.25 9.648438 L 19.535156 12.9375 L 16.25 16.226562 L 14.921875 14.898438 L 15.949219 13.875 L 11.015625 13.875 L 11.015625 12 L 15.949219 12 L 14.921875 10.976562 Z M 8.050781 15.75 L 12.890625 15.75 L 12.890625 17.625 L 8.050781 17.625 L 9.078125 18.648438 L 7.75 19.976562 L 4.464844 16.6875 L 7.75 13.398438 L 9.078125 14.726562 Z M 8.050781 15.75 "/>
</g>
</svg>
